<svg xmlns="http://www.w3.org/2000/svg" viewBox="0 0 512 512"><path d="M340.536 36.766v145.571l-125.663 32.681-125.664-32.681V36.766c0-17.974 14.706-32.681 32.681-32.681h185.965c17.974 0 32.681 14.706 32.681 32.681z" fill="#ced4d2"/><path fill="#ebeeed" d="M121.889 36.364h184.037v113.294H121.889z"/><path fill="#1e3d2e" d="M89.208 182.337h251.327v317.407H89.208z"/><path d="M190.915 285.952c-31.227 31.228-43.147 74.441-35.782 114.83 40.388 7.366 83.603-4.556 114.83-35.782s43.147-74.442 35.782-114.83c-40.388-7.367-83.602 4.554-114.83 35.782z" fill="#7fa339"/><path fill="#fff" d="M121.889 36.364h184.037v113.294H121.889z"/><path fill="#7fa339" d="M407.541 84.164h26.145v80.123h-26.145z"/><path d="M319.23 252.789a8.172 8.172 0 0 0-6.572-6.572c-44.503-8.114-90.135 6.106-122.073 38.043-30.915 30.915-45.229 74.665-38.752 117.797l-30.272 30.276a8.17 8.17 0 1 0 11.556 11.554l30.277-30.279a137.822 137.822 0 0 0 20.47 1.537c36.185 0 71.303-14.262 97.325-40.284 31.935-31.938 46.157-77.572 38.041-122.072zm-49.598 110.517c-24.257 24.257-57.481 36.916-91.311 35.369l107.778-107.787a8.171 8.171 0 0 0-11.555-11.555L166.77 387.117c-1.544-33.827 11.114-67.049 35.369-91.304 26.787-26.787 64.513-39.434 101.912-34.419 5.013 37.397-7.63 75.124-34.419 101.912zM127.338 161.913a8.17 8.17 0 0 0 8.17-8.17V48.619h167.691v105.123a8.17 8.17 0 0 0 16.34 0V40.449a8.17 8.17 0 0 0-8.17-8.17H127.338a8.17 8.17 0 0 0-8.17 8.17v113.294a8.17 8.17 0 0 0 8.17 8.17z"/><path d="M439.13 80.076h-5.508c-3.964-26.779-27.097-47.395-54.959-47.395a8.17 8.17 0 0 0 0 16.34c18.827 0 34.593 13.335 38.363 31.054h-14.933a8.17 8.17 0 0 0 0 16.34h2.723v71.947a8.17 8.17 0 0 0 8.17 8.17h4.902v186.684c0 6.534-5.315 11.849-11.849 11.849-6.533 0-11.849-5.315-11.849-11.849V168.363c0-23.797-17.335-43.608-40.037-47.502v-80.01C354.154 18.326 335.828 0 313.303 0H127.338c-22.526 0-40.851 18.326-40.851 40.851V495.66H72.87a8.17 8.17 0 0 0 0 16.34h294.9a8.17 8.17 0 0 0 0-16.34h-13.617V137.561c13.626 3.618 23.697 16.054 23.697 30.802v194.854c0 15.544 12.645 28.189 28.189 28.189s28.189-12.645 28.189-28.189V176.533h4.902a8.17 8.17 0 0 0 8.17-8.17V88.246a8.169 8.169 0 0 0-8.17-8.17zM127.338 16.34h185.964c13.516 0 24.511 10.996 24.511 24.511v137.402H102.827V40.851c0-13.515 10.995-24.511 24.511-24.511zm-24.511 479.32V194.594h234.985V495.66H102.827zm318.329-335.467V96.416h9.804v63.777h-9.804z"/></svg>
