<svg xmlns="http://www.w3.org/2000/svg" viewBox="0 0 512 512"><path d="M360.73 80.235s-19.334 24.071-38.288 60.916C303.203 66.801 256.105 8.17 256.105 8.17s-47.099 58.631-66.337 132.981c-18.953-36.845-38.287-60.916-38.287-60.916s-73.654 91.613-74.425 191.027c0 98.858 80.089 178.997 178.946 178.997s179.101-80.14 179.101-178.997c-.772-99.414-74.373-191.027-74.373-191.027z" fill="#ffce7f"/><path d="M322.338 184.018s-12.502 15.193-24.464 38.45c-12.145-46.93-41.873-83.939-41.873-83.939s-29.729 37.008-41.871 83.938c-11.963-23.257-24.465-38.45-24.465-38.45s-46.161 57.827-46.648 120.577c0 62.399 50.586 112.983 112.984 112.983s112.984-50.585 112.984-112.983c-.486-62.75-46.647-120.576-46.647-120.576z" fill="#fb5e52"/><path d="M387.566 411.042c-7.682 0-15.143.94-22.282 2.701-.051-.199-.113-.393-.164-.593H146.884c-.052.199-.113.393-.164.593a92.976 92.976 0 0 0-22.282-2.701c-51.245 0-92.787 41.542-92.787 92.787h448.704c-.003-51.245-41.543-92.787-92.789-92.787z" fill="#147391"/><path d="M345.657 373.345H166.346c-8.927 11.688-15.638 25.161-19.463 39.805 30.208 23.264 68.043 37.109 109.118 37.109s78.912-13.846 109.118-37.109c-3.825-14.645-10.534-28.117-19.462-39.805z" fill="#ff857f"/><path d="M256.002 328.946c-36.569 0-69.052 17.42-89.656 44.398 20.652 26.893 53.127 44.234 89.656 44.234s69.003-17.34 89.656-44.234c-20.604-26.978-53.088-44.398-89.656-44.398z" fill="#f73725"/><path d="M387.566 402.872c-5.547 0-11.082.455-16.538 1.355-16.082-49.508-62.317-83.452-115.028-83.452s-98.946 33.943-115.028 83.452a101.537 101.537 0 0 0-16.538-1.355c-55.669 0-100.958 45.289-100.958 100.958 0 4.512 3.657 8.17 8.17 8.17s8.17-3.658 8.17-8.17c0-46.658 37.96-84.617 84.617-84.617 6.861 0 13.7.829 20.327 2.463 4.351 1.07 8.762-1.564 9.872-5.912 11.824-46.307 53.507-78.648 101.366-78.648s89.541 32.341 101.366 78.648c1.109 4.348 5.519 6.983 9.871 5.912a85.005 85.005 0 0 1 20.327-2.463c46.657 0 84.617 37.959 84.617 84.617a8.17 8.17 0 0 0 8.17 8.17 8.17 8.17 0 0 0 8.17-8.17c.005-55.669-45.284-100.958-100.953-100.958z"/><path d="M388.997 459.878c-4.805 0-8.715 3.91-8.715 8.715s3.91 8.715 8.715 8.715 8.715-3.91 8.715-8.715-3.909-8.715-8.715-8.715zM212.961 393.48c0-4.805-3.91-8.715-8.715-8.715s-8.715 3.91-8.715 8.715 3.91 8.715 8.715 8.715c4.805-.001 8.715-3.91 8.715-8.715zM235.375 369.417c0-4.805-3.91-8.715-8.715-8.715s-8.715 3.91-8.715 8.715 3.91 8.715 8.715 8.715c4.806 0 8.715-3.91 8.715-8.715z"/><path d="M117.987 385.407a8.169 8.169 0 0 0 1.608-11.442c-22.45-29.79-34.316-65.304-34.316-102.64.607-78.241 48.626-152.73 66.214-177.409 7.116 9.952 19.186 27.984 31.012 50.971a8.18 8.18 0 0 0 8.169 4.382 8.173 8.173 0 0 0 7.006-6.073c14.373-55.55 45.108-102.678 58.427-121.342 13.32 18.665 44.054 65.792 58.427 121.342a8.171 8.171 0 0 0 7.006 6.073 8.181 8.181 0 0 0 8.169-4.382c11.825-22.988 23.896-41.02 31.013-50.971 17.592 24.684 65.607 99.162 66.214 177.346 0 37.406-11.871 72.926-34.329 102.719a8.17 8.17 0 1 0 13.05 9.836c24.612-32.65 37.62-71.572 37.62-112.619-.412-52.988-21.114-103.487-38.408-136.52-18.653-35.626-36.996-58.6-37.767-59.561a8.171 8.171 0 0 0-12.741 0c-.674.84-14.137 17.705-29.654 44.766C303.148 54.179 264.271 5.29 262.474 3.053a8.17 8.17 0 0 0-12.738 0c-1.796 2.236-40.675 51.125-62.232 116.831-15.517-27.061-28.978-43.926-29.652-44.766a8.172 8.172 0 0 0-12.74 0c-.772.961-19.115 23.934-37.767 59.561-17.295 33.034-37.997 83.533-38.408 136.583 0 40.976 13.005 79.892 37.607 112.538a8.172 8.172 0 0 0 11.443 1.607zM332.417 424.127c-23.827 11.919-49.502 17.962-76.312 17.962-26.878 0-52.612-6.073-76.486-18.05a8.17 8.17 0 1 0-7.327 14.606c26.17 13.128 54.369 19.785 83.813 19.785 29.37 0 57.504-6.624 83.623-19.689a8.172 8.172 0 0 0 3.653-10.962 8.174 8.174 0 0 0-10.964-3.652z"/><path d="M359.776 350.309a8.15 8.15 0 0 0 2.748.478 8.173 8.173 0 0 0 7.694-5.424c4.671-13.076 7.041-26.793 7.041-40.833-.502-64.831-46.475-123.159-48.433-125.611a8.168 8.168 0 0 0-6.325-3.073c-2.451.01-4.804 1.076-6.371 2.979-.393.478-7.416 9.07-15.99 23.116-14.066-38.866-36.575-67.17-37.668-68.53a8.168 8.168 0 0 0-12.739 0c-1.093 1.36-23.601 29.663-37.667 68.53-8.573-14.045-15.596-22.638-15.991-23.116-1.57-1.909-3.877-3.026-6.392-2.978a8.165 8.165 0 0 0-6.33 3.109c-.708.898-17.513 22.35-31.316 53.566a8.17 8.17 0 1 0 14.945 6.609c7.9-17.867 16.994-32.519 22.905-41.255a248.88 248.88 0 0 1 17.08 28.329 8.182 8.182 0 0 0 8.169 4.382 8.173 8.173 0 0 0 7.006-6.073c8.16-31.535 24.819-58.749 33.967-72.097 9.145 13.325 25.778 40.484 33.958 72.097a8.171 8.171 0 0 0 7.006 6.073 8.19 8.19 0 0 0 8.169-4.382 249.025 249.025 0 0 1 17.101-28.362c12.27 18.027 38.225 61.466 38.575 106.751 0 12.097-2.048 23.965-6.087 35.272a8.17 8.17 0 0 0 4.945 10.443zM150.656 258.721a8.164 8.164 0 0 0-10.001 5.787c-3.685 13.805-5.605 27.271-5.704 40.086 0 13.913 2.349 27.572 6.981 40.597a8.173 8.173 0 0 0 7.697 5.435c.909 0 1.833-.153 2.738-.475a8.171 8.171 0 0 0 4.961-10.436 104.418 104.418 0 0 1-6.036-35.058c.089-11.373 1.823-23.464 5.152-35.937a8.17 8.17 0 0 0-5.788-9.999z"/></svg>
