<svg xmlns="http://www.w3.org/2000/svg" viewBox="0 0 55.257 55.257"><path style="fill: #4d4d4d;" d="M8.446 37.434a3.787 3.787 0 1 1-7.576 0 3.787 3.787 0 1 1 7.576 0zm32.203-3.788a3.788 3.788 0 1 0-.001 7.577 3.788 3.788 0 0 0 .001-7.577zm7.576 0c-2.092 0-3.787 1.695-3.787 3.788s1.695 3.788 3.787 3.788a3.788 3.788 0 1 0 0-7.576zM17.209 24.64c0-2.785 1.463-5.044 3.265-5.044h31.518c1.801 0 3.265 2.259 3.265 5.044 0 2.787-1.464 5.047-3.265 5.047h-31.52c-1.803 0-3.263-2.26-3.263-5.047zm15.627.47a2.655 2.655 0 1 0 5.31 0c0-1.467-2.656-4.562-2.656-4.562s-2.654 3.093-2.654 4.562zm22.418 6.644l-1.58 3.154h-2.451c-.688-.953-1.81-1.578-3.074-1.578s-2.385.625-3.074 1.578h-1.432a3.786 3.786 0 0 0-3.072-1.578 3.783 3.783 0 0 0-3.074 1.578H7.652c-.688-.953-1.806-1.578-3.073-1.578s-2.384.625-3.069 1.578L0 35.58v-9.035l3.79-9.313h9.632v-3.198h3.786v.708h-1.261v17.012h39.307zm-42.78-12.627H5.687l-2.684 6.557 1.905-1.683c-.28-.539-.339-1.033-.099-1.217.311-.239.999.135 1.536.834s.72 1.463.408 1.7c-.279.215-.863-.067-1.367-.636L3.814 26.07h8.656l.004-6.943z"/></svg>
